<?xml version="1.0" encoding="UTF-8"?>
<svg id="a" data-name="Default" xmlns="http://www.w3.org/2000/svg" width="1.527in" height=".859in" viewBox="0 0 109.924 61.88">
  <path d="M10.315,19.414c-4.347,3.531-7.231,8.556-8.651,15.077-1.316,6.031-.779,10.777,1.611,14.24,2.407,3.446,6.365,5.169,11.873,5.169,4.451,0,8.379-1.275,11.782-3.826,3.403-2.551,5.893-5.862,7.469-9.933h-7.924c-.953,1.926-1.94,3.37-2.962,4.333-1.871,1.791-4.209,2.686-7.015,2.686-2.737,0-4.763-1.043-6.079-3.129s-1.516-5.224-.598-9.413c.901-4.189,2.442-7.428,4.624-9.717,2.182-2.289,4.728-3.433,7.638-3.433,2.858,0,4.832.811,5.923,2.433.624.912.996,2.264,1.117,4.054h8.002c.398-2.331.026-4.654-1.117-6.968-2.078-4.122-6.339-6.183-12.782-6.183-4.815,0-9.119,1.537-12.912,4.612Z" fill="#055da9"/>
  <path d="M78.123,37.262c-.569.347-1.14.691-1.713,1.032-2.445,1.456-4.922,2.862-7.426,4.22-.044.204-.936,4.103-.981,4.307-.438,2.013-.877,4.026-1.315,6.039h26.967c.485-2.238.97-4.477,1.455-6.715h-18.965c.33-1.516.661-3.031.991-4.547.047-.214.941-4.122.987-4.336Z" fill="#055da9"/>
  <polyline points="79.483 30.338 82.594 16.066 74.592 16.066 69.72 38.446" fill="#055da9"/>
  <path d="M67.75,18.4c-1.862-1.926-4.715-2.889-8.56-2.889h-16.679c-2.711,12.45-5.421,24.9-8.132,37.349h7.95c.97-4.477,1.94-8.953,2.91-13.43h8.132c4.243,0,7.707-.912,10.392-2.737,2.685-1.824,4.512-4.941,5.482-9.35.866-4.037.368-7.019-1.494-8.945ZM61.121,27.395c-.416,1.943-1.247,3.362-2.494,4.257-1.247.895-2.814,1.343-4.702,1.343h-7.456c.797-3.666,1.593-7.331,2.39-10.997h7.456c1.888,0,3.269.414,4.144,1.242.875.828,1.095,2.213.662,4.156Z" fill="#055da9"/>
  <path d="M47.359,10.305c84.115-22.418,35.127,30.948-15.679,50.158-.365.138-.641.303-.317.66.282.31.547.226.884.114,76.768-27.389,118.559-82.403,14.823-51.583-.237.091-.568.203-.403.518.15.287.457.196.693.133Z" fill="#e3c122"/>
</svg>